<svg xmlns="http://www.w3.org/2000/svg" width="29" height="29" fill="none"><g fill-rule="evenodd" clip-path="url(#a)" clip-rule="evenodd"><path fill="#FC6D26" d="m28.948 16.582-1.623-5.421L24.107.416a.653.653 0 0 0-.209-.301.511.511 0 0 0-.317-.113.511.511 0 0 0-.316.113.653.653 0 0 0-.21.3l-3.217 10.746H9.161L5.943.416a.653.653 0 0 0-.209-.301.511.511 0 0 0-.317-.113.511.511 0 0 0-.317.113.653.653 0 0 0-.208.3L1.674 11.162l-1.62 5.421c-.07.244-.07.509.003.752.073.243.213.451.399.59L14.5 29.001l14.044-11.077c.186-.139.326-.347.399-.59a1.34 1.34 0 0 0 .002-.752"/><path fill="#E24329" d="m14.5 29 5.34-17.844H9.16l5.34 17.84V29Z"/><path fill="#FC6D26" d="M14.5 29.001 9.16 11.16H1.677L14.5 29Z"/><path fill="#FCA326" d="M1.676 11.16.054 16.58c-.07.244-.07.509.003.752.073.243.213.451.399.59L14.5 29 1.676 11.16Z"/><path fill="#E24329" d="M1.677 11.16h7.484L5.944.415a.653.653 0 0 0-.209-.301A.511.511 0 0 0 5.418 0a.511.511 0 0 0-.317.114.653.653 0 0 0-.209.3L1.677 11.16Z"/><path fill="#FC6D26" d="m14.5 29 5.34-17.84h7.484L14.5 29Z"/><path fill="#FCA326" d="m27.323 11.16 1.624 5.421c.07.244.07.509-.003.752a1.141 1.141 0 0 1-.399.59L14.5 29l12.823-17.84Z"/><path fill="#E24329" d="M27.323 11.16H19.84L23.057.415a.653.653 0 0 1 .209-.301.511.511 0 0 1 .317-.114c.113 0 .223.04.317.114a.653.653 0 0 1 .209.3l3.217 10.746h-.003Z"/></g><defs><clipPath id="a"><path fill="#fff" d="M0 0h29v29H0z"/></clipPath></defs></svg>