<svg xmlns="http://www.w3.org/2000/svg" width="138" height="46" fill="none"><path fill="#231F20" d="m56.631 24.361-1.354-4.176.001.006-.001-.007-2.689-8.288a1.06 1.06 0 0 0-1.016-.726c-.465.003-.858.29-1.002.733l-2.552 7.866h-8.052l-2.557-7.867a1.045 1.045 0 0 0-1.003-.732h-.005c-.458 0-.864.292-1.013.733l-2.68 8.28-.001.001-.002.007.002-.006-1.36 4.177a1.524 1.524 0 0 0 .553 1.705l11.736 8.538.006.003c.005.004.01.008.015.01-.005-.002-.01-.006-.014-.01l.002.002.002.001a.582.582 0 0 0 .057.035l.008.005.005.003.004.002h.002l.007.004.031.013.03.012h.001l.005.003.006.002h.003l.008.002.003.001c.014.004.029.008.043.01l.017.005h.003l.005.002.01.002h.008a.604.604 0 0 0 .085.007h.001a.607.607 0 0 0 .085-.007H44.083l.009-.002.005-.002h.003l.017-.004.043-.01.003-.002c.003 0 .006 0 .008-.002h.003l.006-.002.005-.002.001-.001.032-.013.028-.012.008-.003.002-.001.004-.002c.002 0 .004-.002.005-.003l.008-.005a.596.596 0 0 0 .057-.034l.004-.003h.001l.006-.004 11.738-8.539a1.521 1.521 0 0 0 .552-1.705ZM51.58 12.673l2.302 7.096h-4.604l2.302-7.096Zm1.899 8.296-.94 1.205-6.928 8.889 3.277-10.094h4.59Zm-10.06 13.336.002.005-.002-.005Zm-1.051-3.242L34.504 20.97h4.591l3.273 10.094Zm-5.969-18.39 2.306 7.096h-4.604l2.298-7.096Zm-3.795 12.423a.325.325 0 0 1-.117-.363l1.01-3.105 7.404 9.504-8.297-6.036Zm11.012 9.493-.007-.006-.002-.001a.73.73 0 0 1-.038-.035l.002.002.003.002a.61.61 0 0 0 .054.047c.002 0 .002.002.003.002l-.015-.011Zm.373-2.411-1.926-5.94-1.708-5.269h7.273l-3.64 11.209Zm.394 2.392-.013.012-.002.001-.007.006-.015.011.002-.002a.577.577 0 0 0 .055-.046l.002-.002.003-.002a.582.582 0 0 1-.025.022Zm10.991-9.474L47.08 31.13l7.406-9.501 1.006 3.103a.325.325 0 0 1-.117.364ZM85.01 16.891h-1.635l.007 12.21h6.626v-1.51h-4.99l-.007-10.7ZM96.314 26.958a2.79 2.79 0 0 1-2.026.856c-1.246 0-1.749-.616-1.749-1.42 0-1.21.84-1.788 2.626-1.788.338 0 .878.038 1.156.09v2.262h-.007Zm-1.696-7.4c-1.321 0-2.537.465-3.482 1.254l.578 1.007c.668-.391 1.486-.782 2.664-.782 1.343 0 1.936.692 1.936 1.849v.593a7.45 7.45 0 0 0-1.133-.09c-2.867 0-4.323 1.007-4.323 3.11 0 1.886 1.156 2.833 2.904 2.833 1.178 0 2.311-.54 2.702-1.42l.3 1.195h1.156v-6.252c-.008-1.976-.864-3.298-3.302-3.298ZM103.198 27.87c-.616 0-1.156-.075-1.561-.262v-5.643c.555-.466 1.246-.804 2.124-.804 1.583 0 2.191 1.12 2.191 2.93 0 2.57-.983 3.78-2.754 3.78Zm.69-8.31c-1.463 0-2.251 1-2.251 1v-1.578l-.008-2.088h-1.598l.008 11.908c.803.338 1.898.519 3.091.519 3.054 0 4.525-1.954 4.525-5.327-.007-2.668-1.366-4.433-3.767-4.433ZM67.2 18.216c1.448 0 2.386.48 2.993.969l.706-1.225c-.953-.841-2.244-1.292-3.624-1.292-3.482 0-5.921 2.126-5.921 6.416 0 4.494 2.634 6.244 5.643 6.244a9.577 9.577 0 0 0 3.632-.706l-.038-4.801v-1.51h-4.465v1.51h2.852l.037 3.644c-.375.188-1.02.338-1.898.338-2.416 0-4.037-1.525-4.037-4.734-.008-3.268 1.666-4.853 4.12-4.853ZM78.72 16.89h-1.598l.007 2.05v7.086c0 1.976.856 3.298 3.294 3.298.338 0 .668-.03.983-.09V27.8a4.67 4.67 0 0 1-.742.053c-1.344 0-1.936-.692-1.936-1.849V21.12h2.678v-1.338h-2.678l-.008-2.892ZM73.057 29.1h1.598v-9.316h-1.598V29.1ZM73.057 18.499h1.598v-1.6h-1.598v1.6Z"/></svg>