<svg xmlns="http://www.w3.org/2000/svg" width="76" height="50" fill="none"><path fill="#0071C5" d="M22.496 21.247v12.12h-3.881V18.132l8.012.008c3.403 0 4.562 2.386 4.562 4.553v10.674h-3.874V22.713c0-.908-.473-1.466-1.613-1.466h-3.206Zm26.388-.183c-1.326 0-2.353.678-2.782 1.599-.254.552-.341.976-.371 1.652h5.97c-.076-1.652-.83-3.25-2.817-3.25Zm-3.153 5.877c0 1.974 1.234 3.426 3.437 3.426 1.714 0 2.566-.472 3.557-1.452l2.397 2.275c-1.535 1.507-3.145 2.421-5.983 2.421-3.715 0-7.27-2.013-7.27-7.883 0-5.015 3.104-7.854 7.183-7.854 4.135 0 6.523 3.324 6.523 7.678v1.39h-9.844Zm-7.138 6.407c-3.161 0-4.502-2.188-4.502-4.35V13.982h3.874v4.151h2.921v3.114h-2.92v7.512c0 .884.42 1.376 1.344 1.376h1.576v3.214h-2.293ZM15.162 16.027h-3.907v-3.69h3.907v3.69Zm.01 17.5c-2.926-.28-3.921-2.044-3.921-4.08l.004-11.315h3.917v15.395Zm46.57-.325c-2.92-.28-3.91-2.042-3.91-4.075V11.81h3.91v21.39Zm13.67-18.888C71.87-2.866 38.33-3.953 16.71 9.132v1.445C38.307-.458 68.936-.393 71.727 15.43c.934 5.231-2.032 10.686-7.328 13.822v4.102c6.375-2.319 12.912-9.837 11.014-19.04ZM36.116 44.37c-14.92 1.371-30.469-.782-32.644-12.374-1.065-5.714 1.553-11.772 5.027-15.534V14.45C2.245 19.9-1.15 26.803.805 34.958 3.299 45.415 16.643 51.342 37.01 49.374c8.059-.782 18.606-3.359 25.939-7.36v-5.685c-6.654 3.94-17.664 7.197-26.834 8.041Z"/><path fill="#0071C5" d="M66.262 12.96c0-.188-.11-.248-.364-.248h-.244v.534l.245.006c.253 0 .363-.084.363-.26v-.031Zm.381 1.324h-.29a.069.069 0 0 1-.06-.038l-.395-.666c-.007-.014-.04-.03-.054-.03h-.178v.66c0 .036-.024.074-.07.074h-.263c-.032 0-.065-.038-.065-.074v-1.67c0-.096.038-.137.12-.15.093-.011.344-.02.48-.02.48 0 .771.141.771.59v.032c0 .278-.139.425-.355.497l.41.688c.002.014.012.033.012.05 0 .027-.016.057-.063.057Zm-.687-2.215c-.713 0-1.29.585-1.29 1.29 0 .705.577 1.28 1.29 1.28a1.29 1.29 0 0 0 1.29-1.28c0-.705-.581-1.29-1.29-1.29Zm0 2.836a1.55 1.55 0 0 1-1.557-1.547 1.56 1.56 0 0 1 3.117 0c0 .852-.704 1.547-1.56 1.547Z"/></svg>