<svg xmlns="http://www.w3.org/2000/svg" width="28" height="28" fill="none"><path fill="#fff" d="m13.61 27.214-5.014-16.26h10.022l-5.007 16.26Z"/><path fill="#fff" fill-opacity=".65" d="m25.644 10.954 1.528 4.94c.138.45-.011.944-.376 1.223L13.612 27.214l12.032-16.26Z"/><path fill="#fff" d="M25.644 10.954H18.62l3.024-9.793c.154-.5.829-.5.99 0l3.011 9.793Z"/><path fill="#fff" fill-opacity=".65" d="M1.573 10.954.05 15.894c-.138.45.012.944.377 1.223l13.185 10.097-12.04-16.26Z"/><path fill="#fff" d="M1.573 10.954h7.023L5.579 1.161a.514.514 0 0 0-.989 0l-3.017 9.793Z"/><path fill="#fff" fill-opacity=".85" d="m13.613 27.214-5.015-16.26H1.573l12.04 16.26Z"/><path fill="#fff" fill-opacity=".85" d="m13.612 27.214 12.032-16.26H18.62l-5.007 16.26Z"/></svg>