<svg xmlns="http://www.w3.org/2000/svg" width="27" height="27" fill="none"><g clip-path="url(#a)"><path fill="#FF3E00" d="M25.266 3.57c-3-3.593-8.972-4.645-13.266-2.38L4.431 5.217C2.367 6.293.936 8.054.523 10.045a6.399 6.399 0 0 0 .908 4.874c-.66.824-1.1 1.739-1.293 2.7-.44 2.036.137 4.141 1.568 5.812 3.028 3.592 8.973 4.645 13.267 2.38l7.568-4.005c2.064-1.075 3.496-2.837 3.909-4.828a6.399 6.399 0 0 0-.909-4.874c.66-.823 1.101-1.739 1.294-2.7.468-2.059-.11-4.164-1.569-5.834Z"/><path fill="#fff" d="M11.257 23.774c-2.45.526-5.01-.275-6.44-1.99-.881-1.008-1.212-2.266-.964-3.502.055-.206.11-.389.165-.595l.138-.366.385.229c.909.55 1.9.961 2.973 1.236l.275.068-.028.23c-.027.32.083.663.303.937.44.526 1.211.778 1.954.618.165-.046.33-.091.468-.16l7.541-4.004c.386-.206.633-.504.716-.87a1.234 1.234 0 0 0-.275-1.052c-.44-.527-1.211-.756-1.954-.595-.165.045-.33.091-.468.16l-2.89 1.533c-.468.252-.99.435-1.541.549-2.45.526-5.01-.275-6.44-1.99-.854-1.007-1.212-2.266-.936-3.502.247-1.19 1.128-2.265 2.367-2.905l7.568-4.005c.468-.251.991-.434 1.542-.572 2.45-.526 5.009.275 6.44 1.991.88 1.007 1.211 2.265.963 3.5-.055.207-.11.39-.192.596l-.138.366-.385-.229c-.909-.55-1.9-.961-2.973-1.236l-.275-.068.027-.229a1.343 1.343 0 0 0-.302-.938c-.44-.526-1.211-.755-1.954-.595-.165.046-.33.091-.468.16l-7.542 4.004c-.385.206-.633.504-.715.87-.083.366.027.755.275 1.052.44.527 1.211.755 1.954.595.165-.045.33-.091.468-.16l2.89-1.533c.468-.252.99-.435 1.541-.572 2.45-.526 5.01.275 6.44 1.99.881 1.008 1.212 2.266.964 3.502-.248 1.19-1.129 2.265-2.367 2.905l-7.569 4.005a6.65 6.65 0 0 1-1.541.572Z"/></g><defs><clipPath id="a"><path fill="#fff" d="M0 0h27v27H0z"/></clipPath></defs></svg>